<?xml version="1.0" encoding="utf-8"?>
<!-- Generator: Adobe Illustrator 25.0.0, SVG Export Plug-In . SVG Version: 6.00 Build 0)  -->
<svg version="1.1" id="Layer_1" xmlns="http://www.w3.org/2000/svg" xmlns:xlink="http://www.w3.org/1999/xlink" x="0px" y="0px"
	 viewBox="0 0 16 16" style="enable-background:new 0 0 16 16;" xml:space="preserve">
<style type="text/css">
	.st0{fill:#1A1A1A;}
	.st1{fill:#00DBDE;}
</style>
<rect class="st0" width="16" height="16"/>
<path class="st1" d="M15.05,13.2c0.08,0.12,0.12,0.15,0.12,0.18c-0.07,0.73,0.54,1.73-0.34,2.13c-1.4,0.65-3.34-0.11-3.83-1.37
	c-0.74-1.9-1.4-3.84-2.1-5.76C8.55,7.41,8.18,6.46,7.86,5.49C7.48,4.38,6.73,3.66,5.79,2.95C5.12,2.44,4.85,1.4,4.25,0.35
	C6.18,0.36,7.6,0.9,8.56,2.11c0.9,1.12,1.5,2.48,2.31,3.86c0-1.11-0.01-2.14,0-3.17c0.03-1.67,0.82-2.45,2.51-2.49
	c0.13,0,0.26,0,0.4,0c1.36,0,1.91,0.76,1.39,2.02c-0.08,0.19-0.51,0.33-0.79,0.34c-0.79,0.02-1.13,0.37-1.13,1.16
	c0.01,2.74,0.03,5.48-0.01,8.21C13.23,13.45,14.27,13.09,15.05,13.2z"/>
<path class="st1" d="M4.02,3.04H1.47C1.2,2.27,0.92,1.53,0.65,0.76c-0.03-0.09,0-0.2,0-0.37C0.82,0.35,0.91,0.32,1,0.31
	c1.92-0.14,1.92-0.14,2.62,1.68C3.76,2.34,3.9,2.69,4.02,3.04z"/>
<path class="st1" d="M8.76,15.54c-0.92,0-1.71,0.03-2.5-0.03c-0.18,0-0.41-0.31-0.49-0.52C4.51,11.52,3.26,8.04,2.02,4.56h2.59
	c1.27,3.32,2.56,6.63,3.83,9.97C8.55,14.79,8.62,15.08,8.76,15.54z"/>
</svg>
