<?xml version="1.0" encoding="utf-8"?>
<!-- Generator: Adobe Illustrator 25.0.0, SVG Export Plug-In . SVG Version: 6.00 Build 0)  -->
<svg version="1.1" id="Layer_1" xmlns="http://www.w3.org/2000/svg" xmlns:xlink="http://www.w3.org/1999/xlink" x="0px" y="0px"
	 viewBox="0 0 102.79 17.95" style="enable-background:new 0 0 102.79 17.95;" xml:space="preserve">
<style type="text/css">
	.st0{fill:#E0E0E0;}
	.st1{fill:#00DBDE;}
</style>
<g>
	<path class="st0" d="M4.75,2.14c-0.68,0-0.77,0.68-0.77,1.25v5.89H1.53V1.34h2.66L4.9,2.15C4.9,2.15,4.85,2.14,4.75,2.14z
		 M8.47,1.34h2.46v7.94H8.4L4.5,4.79v-1.4c0-0.38,0.02-0.78,0.49-0.78c0.24,0,0.4,0.12,0.4,0.12l3.08,3.54V1.34z"/>
	<path class="st0" d="M17.09,3.63L14.37,9.3h-2.46l3.81-7.96h2.72l0.56,1.16C18.2,2.21,17.59,2.65,17.09,3.63z M22.27,9.3H19.8
		l-0.82-1.7h-3.23l0.83-1.73h1.57l-0.78-1.64l0.18-0.37c0.31-0.61,0.77-1.04,1.31-0.92c0.29,0.06,0.52,0.35,0.65,0.62
		C19.51,3.56,21.3,7.29,22.27,9.3z"/>
	<path class="st0" d="M31.59,6.74v0.53c0,1.13-0.91,2.04-2.03,2.04h-4.94c-1.02,0-1.86-0.76-2.01-1.73h7.02
		C30.21,7.58,31.07,7.43,31.59,6.74z M26.58,3.07c0.11-0.84,0.97-1.73,2-1.73h3.01v3.59c0,1.42-0.66,2.13-1.97,2.13h-0.49V6.92V3.07
		H26.58z"/>
	<path class="st0" d="M37.1,3.63L34.38,9.3h-2.46l3.81-7.96h2.72l0.56,1.16C38.22,2.21,37.61,2.65,37.1,3.63z M42.28,9.3h-2.47
		L39,7.6h-3.23l0.83-1.73h1.57l-0.78-1.64l0.18-0.37c0.31-0.61,0.77-1.04,1.31-0.92c0.29,0.06,0.52,0.35,0.65,0.62
		C39.53,3.56,41.31,7.29,42.28,9.3z"/>
	<path class="st0" d="M49.82,1.34c0,0.92-1.01,1.73-2.1,1.73h-7.41c0.11-0.88,0.97-1.73,2-1.73H49.82z M46.28,3.59v5.7h-2.45v-5.7
		H46.28z"/>
	<path class="st0" d="M59.8,1.34v5.95c0,1.12-0.92,2.03-2.04,2.03h-5.29c-1.12,0-2.03-0.91-2.03-2.03V6.82
		c0.49,0.62,1.21,0.76,1.73,0.77h4.86c0.17,0,0.31-0.13,0.31-0.3V1.34H59.8z M50.46,5.33h-0.01V1.34h2.46v5.72h-0.73
		C51.15,7.06,50.57,6.47,50.46,5.33z"/>
	<path class="st0" d="M61.01,1.33v4.14c0.16,1.05,0.76,1.57,1.82,1.57h0.63V1.33H61.01z"/>
	<path class="st0" d="M69.72,7.59c0-0.01,0-0.01,0-0.02h-6.89c-0.54-0.01-1.3-0.14-1.82-0.75V9.3h6.72c0.1,0,7.64,0.05,9.34,0.26
		c4.65,0.58,9.27,1.87,13.5,4.19c1.14,0.62,2.24,1.31,3.27,2.12c0.09,0.06,1.07,0.77,1.07,0.89c2.27-7.39,6.36-9.17,6.36-9.17H69.72
		z M93.5,12.43c0,0-3.29-2.52-7.22-3.25h9.49C95.77,9.18,94.32,10.34,93.5,12.43z"/>
</g>
<g>
	<path class="st1" d="M66.88,1.19h1.85v1.3h-1.85V1.19z M66.88,2.87h1.85v4.29h-1.85V2.87z"/>
	<path class="st1" d="M76.72,1.19c-0.22,0.92-0.8,1.3-1.75,1.3h-3.48c-0.8,0-1.7,0.22-1.97,1.07c-0.04-0.13-0.06-0.29-0.06-0.44
		V2.98c0-1,0.95-1.79,1.78-1.79H76.72z M76.74,5.4c0,1.04-0.95,1.76-1.79,1.76h-3.71c-0.76,0-1.6-0.54-1.76-1.3h4.92
		c0.52,0,0.5-0.49,0.5-0.49V5.36c0-0.14-0.02-0.47-0.5-0.47h-3.16c-0.45,0-0.97-0.2-1.28-0.57c-0.07-0.13-0.12-0.27-0.12-0.42
		c0-0.73,0.85-1.03,1.47-1.03c-0.01,0.04-0.01,0.07-0.01,0.1v0.14c0,0.13,0.01,0.49,0.49,0.49h3.16C75.98,3.6,76.74,4.46,76.74,5.4z
		"/>
	<path class="st1" d="M77.46,4.29V1.19h1.84v4.29h-0.48C78.03,5.47,77.58,5.08,77.46,4.29z M84,5.87c-0.05,0.56-0.58,1.3-1.49,1.3
		h-5.04V5.3c0.39,0.46,0.95,0.56,1.36,0.57H84z"/>
	<path class="st1" d="M88.16,2.91l-2.04,4.26h-1.85l2.86-5.98h2.04l0.42,0.87C89,1.84,88.54,2.17,88.16,2.91z M92.05,7.16H90.2
		l-0.61-1.28h-2.42l0.62-1.3h1.18l-0.59-1.23l0.14-0.28c0.23-0.46,0.58-0.78,0.98-0.69c0.22,0.04,0.39,0.26,0.49,0.47
		C89.98,2.85,91.32,5.65,92.05,7.16z"/>
	<path class="st1" d="M94.61,3.25V3.7v3.47h-1.85V1.19h1.69l0.92,1.04C94.88,2.28,94.61,2.77,94.61,3.25z M100.84,7.16H99V3.7
		l-1.83,1.99h-0.73l-1.43-1.57V3.25c0-0.28,0.13-0.65,0.46-0.65c0.12,0,0.25,0.05,0.39,0.14l0.95,1.07l2.35-2.63h1.67V7.16z"/>
</g>
</svg>
